<svg data-v-423bf9ae="" xmlns="http://www.w3.org/2000/svg" viewBox="0 0 577 90" class="iconLeftSlogan"><!----><!----><!----><g data-v-423bf9ae="" id="67fdd31d-6c97-4d7f-b887-334cb31030f3" fill="black" transform="matrix(5.602240876404433,0,0,5.602240876404433,116.67440719906426,-16.52661109094732)"><path d="M13.99 3.75L15.32 3.75L12.04 13.55L10.57 13.55L7.90 5.73L5.22 13.55L3.72 13.55L0.45 3.75L1.89 3.75L4.54 11.72L7.29 3.75L8.58 3.75L11.28 11.76L13.99 3.75ZM17.04 13.55L17.04 6.13L18.38 6.13L18.38 13.55L17.04 13.55ZM17.71 4.70L17.71 4.70Q17.32 4.70 17.06 4.45L17.06 4.45L17.06 4.45Q16.80 4.20 16.80 3.84L16.80 3.84L16.80 3.84Q16.80 3.47 17.06 3.21L17.06 3.21L17.06 3.21Q17.32 2.95 17.71 2.95L17.71 2.95L17.71 2.95Q18.10 2.95 18.36 3.20L18.36 3.20L18.36 3.20Q18.62 3.44 18.62 3.81L18.62 3.81L18.62 3.81Q18.62 4.19 18.36 4.45L18.36 4.45L18.36 4.45Q18.10 4.70 17.71 4.70L17.71 4.70ZM20.94 13.55L20.94 3.16L22.29 3.16L22.29 13.55L20.94 13.55ZM30.51 3.16L31.85 3.16L31.85 13.55L30.56 13.55L30.56 12.38L30.56 12.38Q30.11 12.99 29.43 13.31L29.43 13.31L29.43 13.31Q28.74 13.64 27.92 13.64L27.92 13.64L27.92 13.64Q26.84 13.64 25.98 13.16L25.98 13.16L25.98 13.16Q25.13 12.68 24.65 11.82L24.65 11.82L24.65 11.82Q24.16 10.96 24.16 9.84L24.16 9.84L24.16 9.84Q24.16 8.72 24.65 7.87L24.65 7.87L24.65 7.87Q25.13 7.01 25.98 6.54L25.98 6.54L25.98 6.54Q26.84 6.06 27.92 6.06L27.92 6.06L27.92 6.06Q28.71 6.06 29.39 6.36L29.39 6.36L29.39 6.36Q30.06 6.66 30.51 7.25L30.51 7.25L30.51 3.16ZM28.03 12.46L28.03 12.46Q28.73 12.46 29.30 12.13L29.30 12.13L29.30 12.13Q29.88 11.80 30.20 11.21L30.20 11.21L30.20 11.21Q30.52 10.61 30.52 9.84L30.52 9.84L30.52 9.84Q30.52 9.07 30.20 8.48L30.20 8.48L30.20 8.48Q29.88 7.88 29.30 7.56L29.30 7.56L29.30 7.56Q28.73 7.24 28.03 7.24L28.03 7.24L28.03 7.24Q27.31 7.24 26.75 7.56L26.75 7.56L26.75 7.56Q26.18 7.88 25.85 8.48L25.85 8.48L25.85 8.48Q25.52 9.07 25.52 9.84L25.52 9.84L25.52 9.84Q25.52 10.61 25.85 11.21L25.85 11.21L25.85 11.21Q26.18 11.80 26.75 12.13L26.75 12.13L26.75 12.13Q27.31 12.46 28.03 12.46L28.03 12.46ZM41.10 9.88L41.10 9.88Q41.10 10.04 41.08 10.29L41.08 10.29L35.06 10.29L35.06 10.29Q35.18 11.27 35.92 11.87L35.92 11.87L35.92 11.87Q36.65 12.46 37.74 12.46L37.74 12.46L37.74 12.46Q39.07 12.46 39.89 11.56L39.89 11.56L40.63 12.43L40.63 12.43Q40.12 13.02 39.38 13.33L39.38 13.33L39.38 13.33Q38.63 13.64 37.70 13.64L37.70 13.64L37.70 13.64Q36.53 13.64 35.62 13.15L35.62 13.15L35.62 13.15Q34.71 12.67 34.21 11.80L34.21 11.80L34.21 11.80Q33.71 10.93 33.71 9.84L33.71 9.84L33.71 9.84Q33.71 8.76 34.20 7.90L34.20 7.90L34.20 7.90Q34.68 7.03 35.53 6.54L35.53 6.54L35.53 6.54Q36.37 6.06 37.44 6.06L37.44 6.06L37.44 6.06Q38.50 6.06 39.33 6.54L39.33 6.54L39.33 6.54Q40.17 7.03 40.64 7.90L40.64 7.90L40.64 7.90Q41.10 8.76 41.10 9.88L41.10 9.88ZM37.44 7.20L37.44 7.20Q36.47 7.20 35.82 7.78L35.82 7.78L35.82 7.78Q35.17 8.37 35.06 9.32L35.06 9.32L39.82 9.32L39.82 9.32Q39.70 8.39 39.05 7.79L39.05 7.79L39.05 7.79Q38.40 7.20 37.44 7.20L37.44 7.20ZM51.31 13.66L51.31 13.66Q49.84 13.66 48.66 13.01L48.66 13.01L48.66 13.01Q47.47 12.36 46.80 11.22L46.80 11.22L46.80 11.22Q46.13 10.08 46.13 8.65L46.13 8.65L46.13 8.65Q46.13 7.22 46.80 6.08L46.80 6.08L46.80 6.08Q47.47 4.94 48.66 4.29L48.66 4.29L48.66 4.29Q49.85 3.64 51.32 3.64L51.32 3.64L51.32 3.64Q52.47 3.64 53.42 4.02L53.42 4.02L53.42 4.02Q54.38 4.41 55.05 5.17L55.05 5.17L54.14 6.05L54.14 6.05Q53.03 4.89 51.38 4.89L51.38 4.89L51.38 4.89Q50.29 4.89 49.41 5.38L49.41 5.38L49.41 5.38Q48.52 5.87 48.03 6.73L48.03 6.73L48.03 6.73Q47.53 7.59 47.53 8.65L47.53 8.65L47.53 8.65Q47.53 9.72 48.03 10.58L48.03 10.58L48.03 10.58Q48.52 11.44 49.41 11.93L49.41 11.93L49.41 11.93Q50.29 12.42 51.38 12.42L51.38 12.42L51.38 12.42Q53.02 12.42 54.14 11.24L54.14 11.24L55.05 12.12L55.05 12.12Q54.38 12.88 53.42 13.27L53.42 13.27L53.42 13.27Q52.46 13.66 51.31 13.66L51.31 13.66ZM60.03 13.64L60.03 13.64Q58.93 13.64 58.04 13.15L58.04 13.15L58.04 13.15Q57.16 12.66 56.66 11.79L56.66 11.79L56.66 11.79Q56.17 10.93 56.17 9.84L56.17 9.84L56.17 9.84Q56.17 8.75 56.66 7.89L56.66 7.89L56.66 7.89Q57.16 7.03 58.04 6.54L58.04 6.54L58.04 6.54Q58.93 6.06 60.03 6.06L60.03 6.06L60.03 6.06Q61.14 6.06 62.01 6.54L62.01 6.54L62.01 6.54Q62.89 7.03 63.38 7.89L63.38 7.89L63.38 7.89Q63.88 8.75 63.88 9.84L63.88 9.84L63.88 9.84Q63.88 10.93 63.38 11.79L63.38 11.79L63.38 11.79Q62.89 12.66 62.01 13.15L62.01 13.15L62.01 13.15Q61.14 13.64 60.03 13.64L60.03 13.64ZM60.03 12.46L60.03 12.46Q60.75 12.46 61.31 12.13L61.31 12.13L61.31 12.13Q61.88 11.80 62.20 11.21L62.20 11.21L62.20 11.21Q62.52 10.61 62.52 9.84L62.52 9.84L62.52 9.84Q62.52 9.07 62.20 8.48L62.20 8.48L62.20 8.48Q61.88 7.88 61.31 7.56L61.31 7.56L61.31 7.56Q60.75 7.24 60.03 7.24L60.03 7.24L60.03 7.24Q59.32 7.24 58.75 7.56L58.75 7.56L58.75 7.56Q58.18 7.88 57.85 8.48L57.85 8.48L57.85 8.48Q57.53 9.07 57.53 9.84L57.53 9.84L57.53 9.84Q57.53 10.61 57.85 11.21L57.85 11.21L57.85 11.21Q58.18 11.80 58.75 12.13L58.75 12.13L58.75 12.13Q59.32 12.46 60.03 12.46L60.03 12.46ZM71.40 3.16L72.74 3.16L72.74 13.55L71.46 13.55L71.46 12.38L71.46 12.38Q71.01 12.99 70.32 13.31L70.32 13.31L70.32 13.31Q69.64 13.64 68.81 13.64L68.81 13.64L68.81 13.64Q67.73 13.64 66.88 13.16L66.88 13.16L66.88 13.16Q66.02 12.68 65.54 11.82L65.54 11.82L65.54 11.82Q65.06 10.96 65.06 9.84L65.06 9.84L65.06 9.84Q65.06 8.72 65.54 7.87L65.54 7.87L65.54 7.87Q66.02 7.01 66.88 6.54L66.88 6.54L66.88 6.54Q67.73 6.06 68.81 6.06L68.81 6.06L68.81 6.06Q69.61 6.06 70.28 6.36L70.28 6.36L70.28 6.36Q70.95 6.66 71.40 7.25L71.40 7.25L71.40 3.16ZM68.92 12.46L68.92 12.46Q69.62 12.46 70.20 12.13L70.20 12.13L70.20 12.13Q70.77 11.80 71.09 11.21L71.09 11.21L71.09 11.21Q71.41 10.61 71.41 9.84L71.41 9.84L71.41 9.84Q71.41 9.07 71.09 8.48L71.09 8.48L71.09 8.48Q70.77 7.88 70.20 7.56L70.20 7.56L70.20 7.56Q69.62 7.24 68.92 7.24L68.92 7.24L68.92 7.24Q68.21 7.24 67.64 7.56L67.64 7.56L67.64 7.56Q67.07 7.88 66.75 8.48L66.75 8.48L66.75 8.48Q66.42 9.07 66.42 9.84L66.42 9.84L66.42 9.84Q66.42 10.61 66.75 11.21L66.75 11.21L66.75 11.21Q67.07 11.80 67.64 12.13L67.64 12.13L67.64 12.13Q68.21 12.46 68.92 12.46L68.92 12.46ZM82.00 9.88L82.00 9.88Q82.00 10.04 81.97 10.29L81.97 10.29L75.95 10.29L75.95 10.29Q76.08 11.27 76.81 11.87L76.81 11.87L76.81 11.87Q77.55 12.46 78.64 12.46L78.64 12.46L78.64 12.46Q79.97 12.46 80.78 11.56L80.78 11.56L81.52 12.43L81.52 12.43Q81.02 13.02 80.27 13.33L80.27 13.33L80.27 13.33Q79.52 13.64 78.60 13.64L78.60 13.64L78.60 13.64Q77.42 13.64 76.51 13.15L76.51 13.15L76.51 13.15Q75.60 12.67 75.10 11.80L75.10 11.80L75.10 11.80Q74.61 10.93 74.61 9.84L74.61 9.84L74.61 9.84Q74.61 8.76 75.09 7.90L75.09 7.90L75.09 7.90Q75.57 7.03 76.42 6.54L76.42 6.54L76.42 6.54Q77.27 6.06 78.33 6.06L78.33 6.06L78.33 6.06Q79.39 6.06 80.23 6.54L80.23 6.54L80.23 6.54Q81.06 7.03 81.53 7.90L81.53 7.90L81.53 7.90Q82.00 8.76 82.00 9.88L82.00 9.88ZM78.33 7.20L78.33 7.20Q77.36 7.20 76.71 7.78L76.71 7.78L76.71 7.78Q76.06 8.37 75.95 9.32L75.95 9.32L80.71 9.32L80.71 9.32Q80.60 8.39 79.95 7.79L79.95 7.79L79.95 7.79Q79.30 7.20 78.33 7.20L78.33 7.20Z"></path></g><!----><g data-v-423bf9ae="" id="bce5e462-d8e9-4012-bfb9-a8e8cc5b7acb" transform="matrix(1.5325670896298305,0,0,1.5325670896298305,-27.330365644507538,-32.649905085652534)" stroke="none" fill="black"><path d="M82.7 50.6L63.6 31.3c-.3-.3-.9-.3-1.2 0-.3.3-.3.9 0 1.2L81 51.2 62.3 70c-.3.3-.3.9 0 1.2.2.2.4.3.6.3.2 0 .5-.1.6-.3l19.2-19.3c.4-.4.4-.9 0-1.3zM38.9 31.3c-.3-.3-.9-.3-1.2 0L18.5 50.6c-.3.3-.3.9 0 1.2l19.2 19.3c.2.2.4.3.6.3.2 0 .4-.1.6-.3.3-.3.3-.9 0-1.2L20.4 51.2 39 32.5c.3-.3.3-.9-.1-1.2zM59.8 21.9c-.5-.1-1 .1-1.1.6l-17.9 57c-.1.5.1 1 .6 1.1h.3c.4 0 .7-.2.8-.6l17.9-57c.1-.5-.1-1-.6-1.1z"></path></g><!----><g data-v-423bf9ae="" id="9202e54d-a13b-4827-8825-82288114b143" fill="black" transform="matrix(0.9867445582168676,0,0,0.9867445582168676,118.68229794086778,56.260238778712484)"><path d="M8.43 12.21C8.40 12.18 8.36 12.15 8.32 12.15C8.29 12.15 8.27 12.15 8.25 12.17C8.23 12.18 8.20 12.21 8.18 12.22C7.98 12.40 7.77 12.56 7.57 12.70C7.38 12.84 7.17 12.94 6.93 13.03C6.69 13.13 6.44 13.20 6.16 13.24C5.88 13.29 5.57 13.31 5.22 13.31C4.66 13.31 4.12 13.22 3.64 13.01C3.15 12.81 2.74 12.52 2.39 12.14C2.04 11.76 1.75 11.28 1.55 10.74C1.36 10.19 1.26 9.56 1.26 8.86C1.26 8.18 1.36 7.56 1.55 7.01C1.76 6.47 2.04 6.01 2.41 5.61C2.77 5.24 3.21 4.94 3.71 4.73C4.21 4.52 4.76 4.42 5.36 4.42C6.26 4.42 7.08 4.56 7.81 4.89C7.85 5.78 7.90 6.30 7.90 6.41C7.91 6.64 7.99 6.75 8.19 6.75L8.53 6.75L8.53 4.51C7.35 4.03 6.29 3.81 5.36 3.81C4.65 3.81 4.00 3.92 3.40 4.17C2.81 4.42 2.28 4.76 1.86 5.21C1.43 5.66 1.11 6.19 0.87 6.80C0.63 7.42 0.52 8.11 0.52 8.86C0.52 9.63 0.64 10.32 0.87 10.95C1.09 11.58 1.41 12.10 1.82 12.54C2.23 12.99 2.72 13.33 3.29 13.57C3.86 13.80 4.48 13.93 5.17 13.93C5.57 13.93 5.95 13.90 6.30 13.83C6.64 13.76 6.96 13.66 7.25 13.54C7.53 13.41 7.80 13.26 8.04 13.09C8.27 12.91 8.50 12.73 8.71 12.50ZM25.98 8.86C25.98 8.11 25.86 7.41 25.63 6.79C25.41 6.17 25.09 5.64 24.67 5.19C24.25 4.75 23.76 4.40 23.18 4.16C22.61 3.92 21.95 3.79 21.25 3.79C20.55 3.79 19.92 3.92 19.35 4.16C18.77 4.40 18.27 4.75 17.85 5.19C17.43 5.64 17.11 6.17 16.88 6.79C16.66 7.41 16.53 8.11 16.53 8.86C16.53 9.63 16.66 10.33 16.88 10.95C17.11 11.56 17.43 12.10 17.85 12.54C18.27 12.99 18.77 13.33 19.35 13.57C19.92 13.80 20.55 13.93 21.25 13.93C21.95 13.93 22.61 13.80 23.18 13.57C23.76 13.33 24.25 12.99 24.67 12.54C25.09 12.10 25.41 11.56 25.63 10.95C25.86 10.33 25.98 9.63 25.98 8.86ZM25.23 8.86C25.23 9.56 25.14 10.18 24.95 10.72C24.75 11.27 24.49 11.75 24.14 12.12C23.79 12.50 23.37 12.81 22.88 13.01C22.39 13.20 21.85 13.30 21.25 13.30C20.66 13.30 20.13 13.20 19.64 13.01C19.15 12.81 18.73 12.50 18.38 12.12C18.03 11.75 17.75 11.27 17.56 10.72C17.36 10.18 17.28 9.56 17.28 8.86C17.28 8.18 17.36 7.55 17.56 7.00C17.75 6.45 18.03 5.98 18.38 5.60C18.73 5.22 19.15 4.91 19.64 4.72C20.13 4.52 20.66 4.41 21.25 4.41C21.85 4.41 22.39 4.52 22.88 4.72C23.37 4.91 23.79 5.22 24.14 5.60C24.49 5.98 24.75 6.45 24.95 7.00C25.14 7.55 25.23 8.18 25.23 8.86ZM43.26 6.80C43.04 6.19 42.71 5.68 42.29 5.25C41.87 4.82 41.38 4.48 40.81 4.26C40.24 4.03 39.58 3.92 38.88 3.92L35.45 3.92L34.26 3.92L34.26 4.19C34.26 4.34 34.36 4.42 34.54 4.44L34.68 4.44C34.75 4.44 34.85 4.45 34.99 4.45C35.13 4.45 35.28 4.47 35.45 4.47L35.45 13.26C35.28 13.26 35.13 13.27 34.99 13.27C34.85 13.27 34.75 13.29 34.68 13.29L34.54 13.29C34.36 13.30 34.26 13.38 34.26 13.54L34.26 13.82L35.45 13.82L38.88 13.82C39.58 13.82 40.24 13.71 40.81 13.48C41.38 13.26 41.87 12.92 42.29 12.49C42.71 12.05 43.04 11.54 43.26 10.92C43.48 10.30 43.61 9.63 43.61 8.86C43.61 8.11 43.48 7.42 43.26 6.80ZM42.57 10.72C42.38 11.27 42.13 11.72 41.78 12.10C41.43 12.47 41.01 12.75 40.52 12.95C40.03 13.15 39.48 13.24 38.88 13.24L36.16 13.24L36.16 4.49L38.88 4.49C39.48 4.49 40.03 4.59 40.52 4.79C41.01 4.98 41.43 5.26 41.78 5.64C42.13 6.02 42.38 6.47 42.57 7.01C42.77 7.56 42.87 8.18 42.87 8.86C42.87 9.56 42.77 10.18 42.57 10.72ZM53.09 3.92L51.90 3.92L51.90 4.19C51.90 4.34 52.00 4.42 52.18 4.44L52.32 4.44C52.39 4.44 52.49 4.45 52.63 4.45C52.77 4.45 52.92 4.47 53.09 4.47L53.09 13.26C52.92 13.26 52.77 13.27 52.63 13.27C52.49 13.27 52.39 13.29 52.32 13.29L52.18 13.29C52.00 13.30 51.91 13.38 51.91 13.54L51.91 13.82L53.09 13.82L59.02 13.82L59.02 13.22L59.02 11.76L58.67 11.76C58.48 11.76 58.39 11.89 58.38 12.11C58.38 12.14 58.37 12.19 58.37 12.29C58.37 12.39 58.37 12.53 58.35 12.74C58.34 12.95 58.32 13.09 58.32 13.22L53.80 13.22L53.80 9.09L57.75 9.09L57.75 8.51L53.80 8.51L53.80 4.51L58.32 4.51C58.35 5.12 58.38 5.50 58.38 5.63C58.39 5.85 58.48 5.96 58.67 5.96L59.02 5.96L59.02 4.51L59.02 3.92ZM85.09 9.52C84.67 9.11 84.07 8.86 83.29 8.75C83.61 8.67 83.89 8.55 84.14 8.40C84.39 8.25 84.62 8.08 84.78 7.87C84.95 7.66 85.09 7.43 85.18 7.20C85.26 6.96 85.32 6.71 85.32 6.44C85.32 6.05 85.23 5.68 85.11 5.38C84.98 5.07 84.77 4.80 84.50 4.58C84.24 4.37 83.90 4.20 83.48 4.09C83.06 3.98 82.57 3.92 82.01 3.92L79.17 3.92L77.98 3.92L77.98 4.19C77.98 4.34 78.08 4.42 78.26 4.44L78.40 4.44C78.47 4.44 78.57 4.45 78.71 4.45C78.85 4.45 79.00 4.47 79.17 4.47L79.17 13.26C79.00 13.26 78.85 13.27 78.71 13.27C78.57 13.27 78.47 13.29 78.40 13.29L78.26 13.29C78.08 13.30 77.99 13.38 77.99 13.54L77.99 13.82L79.17 13.82L82.38 13.82C82.91 13.82 83.37 13.76 83.79 13.64C84.21 13.51 84.56 13.34 84.84 13.10C85.12 12.87 85.34 12.59 85.50 12.25C85.65 11.91 85.72 11.54 85.72 11.12C85.72 10.46 85.51 9.93 85.09 9.52ZM79.88 4.48L82.01 4.48C82.89 4.48 83.55 4.66 83.97 5.00C84.39 5.35 84.60 5.84 84.60 6.51C84.60 6.76 84.56 7.03 84.46 7.27C84.36 7.50 84.21 7.71 84 7.91C83.79 8.11 83.52 8.26 83.20 8.37C82.88 8.48 82.49 8.55 82.03 8.55L79.88 8.55ZM84.34 12.68C83.89 13.06 83.23 13.24 82.36 13.24L79.88 13.24L79.88 9.07L82.38 9.07C82.80 9.07 83.16 9.11 83.48 9.21C83.80 9.31 84.08 9.45 84.31 9.62C84.53 9.80 84.70 10.00 84.83 10.25C84.94 10.50 85.01 10.79 85.01 11.10C85.01 11.79 84.78 12.31 84.34 12.68ZM103.18 8.86C103.18 8.11 103.05 7.41 102.83 6.79C102.61 6.17 102.28 5.64 101.86 5.19C101.44 4.75 100.95 4.40 100.38 4.16C99.81 3.92 99.15 3.79 98.45 3.79C97.75 3.79 97.12 3.92 96.54 4.16C95.97 4.40 95.47 4.75 95.05 5.19C94.63 5.64 94.30 6.17 94.08 6.79C93.86 7.41 93.73 8.11 93.73 8.86C93.73 9.63 93.86 10.33 94.08 10.95C94.30 11.56 94.63 12.10 95.05 12.54C95.47 12.99 95.97 13.33 96.54 13.57C97.12 13.80 97.75 13.93 98.45 13.93C99.15 13.93 99.81 13.80 100.38 13.57C100.95 13.33 101.44 12.99 101.86 12.54C102.28 12.10 102.61 11.56 102.83 10.95C103.05 10.33 103.18 9.63 103.18 8.86ZM102.42 8.86C102.42 9.56 102.34 10.18 102.14 10.72C101.95 11.27 101.68 11.75 101.33 12.12C100.98 12.50 100.56 12.81 100.07 13.01C99.58 13.20 99.05 13.30 98.45 13.30C97.86 13.30 97.33 13.20 96.84 13.01C96.35 12.81 95.93 12.50 95.58 12.12C95.23 11.75 94.95 11.27 94.75 10.72C94.56 10.18 94.47 9.56 94.47 8.86C94.47 8.18 94.56 7.55 94.75 7.00C94.95 6.45 95.23 5.98 95.58 5.60C95.93 5.22 96.35 4.91 96.84 4.72C97.33 4.52 97.86 4.41 98.45 4.41C99.05 4.41 99.58 4.52 100.07 4.72C100.56 4.91 100.98 5.22 101.33 5.60C101.68 5.98 101.95 6.45 102.14 7.00C102.34 7.55 102.42 8.18 102.42 8.86ZM117.82 11.97C117.63 11.97 117.54 12.08 117.53 12.31C117.53 12.32 117.53 12.38 117.52 12.43C117.50 12.49 117.50 12.59 117.49 12.71C117.47 12.84 117.46 13.01 117.45 13.20L113.36 13.20L113.36 4.47C113.53 4.47 113.67 4.45 113.81 4.45C113.95 4.45 114.06 4.44 114.13 4.44L114.25 4.44C114.44 4.42 114.53 4.34 114.53 4.19L114.53 3.92L113.36 3.92L112.64 3.92L111.45 3.92L111.45 4.19C111.45 4.34 111.55 4.42 111.73 4.44L111.87 4.44C111.94 4.44 112.04 4.45 112.18 4.45C112.32 4.45 112.48 4.47 112.64 4.47L112.64 13.26C112.48 13.26 112.32 13.27 112.18 13.27C112.04 13.27 111.94 13.29 111.87 13.29L111.73 13.29C111.55 13.30 111.45 13.38 111.45 13.54L111.45 13.82L112.64 13.82L117.92 13.82L118.05 13.82L118.17 13.82L118.17 13.55L118.17 12.99L118.17 11.97L117.89 11.97ZM135.60 6.80C135.38 6.19 135.06 5.68 134.64 5.25C134.22 4.82 133.73 4.48 133.15 4.26C132.58 4.03 131.92 3.92 131.22 3.92L127.79 3.92L126.60 3.92L126.60 4.19C126.60 4.34 126.70 4.42 126.88 4.44L127.02 4.44C127.09 4.44 127.19 4.45 127.33 4.45C127.47 4.45 127.62 4.47 127.79 4.47L127.79 13.26C127.62 13.26 127.47 13.27 127.33 13.27C127.19 13.27 127.09 13.29 127.02 13.29L126.88 13.29C126.70 13.30 126.60 13.38 126.60 13.54L126.60 13.82L127.79 13.82L131.22 13.82C131.92 13.82 132.58 13.71 133.15 13.48C133.73 13.26 134.22 12.92 134.64 12.49C135.06 12.05 135.38 11.54 135.60 10.92C135.83 10.30 135.95 9.63 135.95 8.86C135.95 8.11 135.83 7.42 135.60 6.80ZM134.92 10.72C134.72 11.27 134.47 11.72 134.12 12.10C133.77 12.47 133.35 12.75 132.86 12.95C132.37 13.15 131.82 13.24 131.22 13.24L128.51 13.24L128.51 4.49L131.22 4.49C131.82 4.49 132.37 4.59 132.86 4.79C133.35 4.98 133.77 5.26 134.12 5.64C134.47 6.02 134.72 6.47 134.92 7.01C135.11 7.56 135.21 8.18 135.21 8.86C135.21 9.56 135.11 10.18 134.92 10.72ZM150.61 11.97C150.42 11.97 150.33 12.08 150.32 12.31C150.32 12.32 150.32 12.38 150.30 12.43C150.29 12.49 150.29 12.59 150.28 12.71C150.26 12.84 150.25 13.01 150.23 13.20L146.15 13.20L146.15 4.47C146.31 4.47 146.45 4.45 146.59 4.45C146.73 4.45 146.85 4.44 146.92 4.44L147.04 4.44C147.22 4.42 147.32 4.34 147.32 4.19L147.32 3.92L146.15 3.92L145.43 3.92L144.24 3.92L144.24 4.19C144.24 4.34 144.34 4.42 144.52 4.44L144.66 4.44C144.73 4.44 144.83 4.45 144.97 4.45C145.11 4.45 145.26 4.47 145.43 4.47L145.43 13.26C145.26 13.26 145.11 13.27 144.97 13.27C144.83 13.27 144.73 13.29 144.66 13.29L144.52 13.29C144.34 13.30 144.24 13.38 144.24 13.54L144.24 13.82L145.43 13.82L150.71 13.82L150.84 13.82L150.96 13.82L150.96 13.55L150.96 12.99L150.96 11.97L150.68 11.97ZM166.15 3.92L166.08 3.92L165.52 3.92L165.41 3.92L164.01 3.92L164.01 4.19C164.01 4.34 164.11 4.42 164.29 4.44L164.40 4.44C164.46 4.44 164.53 4.45 164.64 4.45C164.75 4.45 164.88 4.47 165.02 4.47L162.43 8.64C162.36 8.75 162.30 8.85 162.26 8.95C162.22 9.04 162.18 9.16 162.13 9.25C162.09 9.16 162.05 9.04 162.01 8.95C161.97 8.85 161.91 8.75 161.84 8.64L159.24 4.47C159.38 4.47 159.50 4.45 159.61 4.45C159.73 4.45 159.81 4.44 159.87 4.44L159.96 4.44C160.15 4.42 160.24 4.34 160.24 4.19L160.24 3.92L158.84 3.92L158.73 3.92L158.17 3.92L158.10 3.92L157.65 3.92L157.65 4.19C157.65 4.34 157.75 4.42 157.93 4.44C158.17 4.45 158.35 4.47 158.45 4.47L161.77 9.73L161.77 13.26C161.60 13.26 161.45 13.27 161.31 13.27C161.17 13.27 161.07 13.29 161.00 13.29L160.87 13.29C160.69 13.30 160.59 13.38 160.59 13.54L160.59 13.82L161.77 13.82L162.48 13.82L163.66 13.82L163.66 13.54C163.66 13.38 163.58 13.30 163.39 13.29L163.25 13.29C163.18 13.29 163.09 13.27 162.95 13.27C162.81 13.27 162.65 13.26 162.48 13.26L162.48 9.73L165.80 4.47C165.91 4.47 166.08 4.45 166.32 4.44C166.50 4.42 166.60 4.34 166.60 4.19L166.60 3.92ZM173.96 13.29C173.96 13.47 174.02 13.61 174.15 13.73C174.27 13.86 174.43 13.93 174.61 13.93C174.69 13.93 174.78 13.90 174.86 13.87C174.94 13.85 175.00 13.79 175.06 13.73C175.11 13.68 175.17 13.62 175.20 13.54C175.22 13.45 175.25 13.38 175.25 13.29C175.25 13.20 175.22 13.12 175.20 13.03C175.17 12.95 175.11 12.88 175.06 12.82C175.00 12.77 174.94 12.71 174.86 12.68C174.78 12.66 174.69 12.63 174.61 12.63C174.51 12.63 174.43 12.66 174.34 12.68C174.26 12.71 174.20 12.77 174.15 12.82C174.09 12.88 174.03 12.95 174.01 13.03C173.98 13.12 173.96 13.20 173.96 13.29ZM202.01 12.21C201.98 12.18 201.94 12.15 201.89 12.15C201.87 12.15 201.85 12.15 201.82 12.17C201.81 12.18 201.78 12.21 201.75 12.22C201.56 12.40 201.35 12.56 201.15 12.70C200.96 12.84 200.75 12.94 200.51 13.03C200.27 13.13 200.02 13.20 199.74 13.24C199.46 13.29 199.15 13.31 198.80 13.31C198.24 13.31 197.69 13.22 197.22 13.01C196.73 12.81 196.32 12.52 195.97 12.14C195.62 11.76 195.33 11.28 195.13 10.74C194.94 10.19 194.84 9.56 194.84 8.86C194.84 8.18 194.94 7.56 195.13 7.01C195.34 6.47 195.62 6.01 195.99 5.61C196.35 5.24 196.78 4.94 197.29 4.73C197.79 4.52 198.34 4.42 198.94 4.42C199.84 4.42 200.66 4.56 201.39 4.89C201.43 5.78 201.47 6.30 201.47 6.41C201.49 6.64 201.57 6.75 201.77 6.75L202.10 6.75L202.10 4.51C200.93 4.03 199.86 3.81 198.94 3.81C198.23 3.81 197.58 3.92 196.98 4.17C196.39 4.42 195.86 4.76 195.44 5.21C195.01 5.66 194.68 6.19 194.45 6.80C194.21 7.42 194.10 8.11 194.10 8.86C194.10 9.63 194.22 10.32 194.45 10.95C194.67 11.58 194.99 12.10 195.40 12.54C195.80 12.99 196.29 13.33 196.87 13.57C197.44 13.80 198.06 13.93 198.74 13.93C199.15 13.93 199.53 13.90 199.88 13.83C200.21 13.76 200.54 13.66 200.83 13.54C201.11 13.41 201.38 13.26 201.61 13.09C201.85 12.91 202.08 12.73 202.29 12.50ZM219.56 8.86C219.56 8.11 219.44 7.41 219.21 6.79C218.99 6.17 218.67 5.64 218.25 5.19C217.83 4.75 217.34 4.40 216.76 4.16C216.19 3.92 215.53 3.79 214.83 3.79C214.13 3.79 213.50 3.92 212.93 4.16C212.35 4.40 211.85 4.75 211.43 5.19C211.01 5.64 210.69 6.17 210.46 6.79C210.24 7.41 210.11 8.11 210.11 8.86C210.11 9.63 210.24 10.33 210.46 10.95C210.69 11.56 211.01 12.10 211.43 12.54C211.85 12.99 212.35 13.33 212.93 13.57C213.50 13.80 214.13 13.93 214.83 13.93C215.53 13.93 216.19 13.80 216.76 13.57C217.34 13.33 217.83 12.99 218.25 12.54C218.67 12.10 218.99 11.56 219.21 10.95C219.44 10.33 219.56 9.63 219.56 8.86ZM218.81 8.86C218.81 9.56 218.72 10.18 218.53 10.72C218.33 11.27 218.06 11.75 217.71 12.12C217.36 12.50 216.94 12.81 216.45 13.01C215.96 13.20 215.43 13.30 214.83 13.30C214.24 13.30 213.71 13.20 213.22 13.01C212.73 12.81 212.31 12.50 211.96 12.12C211.61 11.75 211.33 11.27 211.13 10.72C210.94 10.18 210.85 9.56 210.85 8.86C210.85 8.18 210.94 7.55 211.13 7.00C211.33 6.45 211.61 5.98 211.96 5.60C212.31 5.22 212.73 4.91 213.22 4.72C213.71 4.52 214.24 4.41 214.83 4.41C215.43 4.41 215.96 4.52 216.45 4.72C216.94 4.91 217.36 5.22 217.71 5.60C218.06 5.98 218.33 6.45 218.53 7.00C218.72 7.55 218.81 8.18 218.81 8.86ZM236.84 6.80C236.61 6.19 236.29 5.68 235.87 5.25C235.45 4.82 234.96 4.48 234.39 4.26C233.81 4.03 233.16 3.92 232.46 3.92L229.03 3.92L227.84 3.92L227.84 4.19C227.84 4.34 227.93 4.42 228.12 4.44L228.26 4.44C228.33 4.44 228.42 4.45 228.56 4.45C228.70 4.45 228.86 4.47 229.03 4.47L229.03 13.26C228.86 13.26 228.70 13.27 228.56 13.27C228.42 13.27 228.33 13.29 228.26 13.29L228.12 13.29C227.93 13.30 227.84 13.38 227.84 13.54L227.84 13.82L229.03 13.82L232.46 13.82C233.16 13.82 233.81 13.71 234.39 13.48C234.96 13.26 235.45 12.92 235.87 12.49C236.29 12.05 236.61 11.54 236.84 10.92C237.06 10.30 237.19 9.63 237.19 8.86C237.19 8.11 237.06 7.42 236.84 6.80ZM236.15 10.72C235.96 11.27 235.70 11.72 235.35 12.10C235.00 12.47 234.58 12.75 234.09 12.95C233.60 13.15 233.06 13.24 232.46 13.24L229.74 13.24L229.74 4.49L232.46 4.49C233.06 4.49 233.60 4.59 234.09 4.79C234.58 4.98 235.00 5.26 235.35 5.64C235.70 6.02 235.96 6.47 236.15 7.01C236.35 7.56 236.45 8.18 236.45 8.86C236.45 9.56 236.35 10.18 236.15 10.72ZM246.67 3.92L245.48 3.92L245.48 4.19C245.48 4.34 245.57 4.42 245.76 4.44L245.90 4.44C245.97 4.44 246.06 4.45 246.20 4.45C246.34 4.45 246.50 4.47 246.67 4.47L246.67 13.26C246.50 13.26 246.34 13.27 246.20 13.27C246.06 13.27 245.97 13.29 245.90 13.29L245.76 13.29C245.57 13.30 245.49 13.38 245.49 13.54L245.49 13.82L246.67 13.82L252.60 13.82L252.60 13.22L252.60 11.76L252.25 11.76C252.06 11.76 251.97 11.89 251.96 12.11C251.96 12.14 251.94 12.19 251.94 12.29C251.94 12.39 251.94 12.53 251.93 12.74C251.92 12.95 251.90 13.09 251.90 13.22L247.38 13.22L247.38 9.09L251.33 9.09L251.33 8.51L247.38 8.51L247.38 4.51L251.90 4.51C251.93 5.12 251.96 5.50 251.96 5.63C251.97 5.85 252.06 5.96 252.25 5.96L252.60 5.96L252.60 4.51L252.60 3.92ZM285.36 3.92L284.82 3.92L284.77 3.92L283.30 3.92L283.30 4.19C283.30 4.34 283.39 4.42 283.57 4.44L283.70 4.44C283.75 4.44 283.85 4.45 283.99 4.45C284.13 4.45 284.27 4.47 284.44 4.47L282.06 12.24C282.03 12.33 282.00 12.43 281.99 12.54C281.97 12.66 281.95 12.75 281.92 12.87C281.89 12.75 281.88 12.63 281.85 12.53L281.76 12.24L278.96 4.10C278.94 4.05 278.91 3.99 278.87 3.96C278.82 3.93 278.77 3.92 278.70 3.92L278.50 3.92C278.43 3.92 278.38 3.93 278.33 3.98C278.29 4.02 278.25 4.05 278.24 4.10L275.44 12.25C275.41 12.35 275.38 12.43 275.35 12.54C275.32 12.64 275.31 12.75 275.28 12.88C275.27 12.78 275.24 12.67 275.21 12.54C275.20 12.43 275.17 12.33 275.14 12.24L272.76 4.47C272.93 4.47 273.07 4.45 273.20 4.45C273.32 4.45 273.41 4.44 273.46 4.44L273.57 4.44C273.76 4.42 273.85 4.34 273.85 4.19L273.85 3.92L272.38 3.92L271.80 3.92L271.19 3.92L271.19 4.19C271.19 4.34 271.29 4.42 271.47 4.44L271.57 4.44C271.61 4.44 271.66 4.45 271.73 4.45C271.80 4.45 271.88 4.47 271.96 4.47L274.92 13.82L275.55 13.82L278.49 5.22C278.53 5.11 278.56 5.00 278.59 4.87C278.61 5.00 278.64 5.11 278.68 5.22L281.61 13.82L282.25 13.82L285.19 4.47C285.28 4.47 285.35 4.45 285.42 4.45C285.49 4.45 285.54 4.44 285.59 4.44L285.68 4.44C285.87 4.42 285.95 4.34 285.95 4.19L285.95 3.92ZM296.81 4.44C297.00 4.42 297.08 4.34 297.08 4.19L297.08 3.91L295.90 3.91L295.19 3.91L294.00 3.91L294.00 4.19C294.00 4.34 294.10 4.42 294.28 4.44L294.42 4.44C294.49 4.44 294.59 4.45 294.73 4.45C294.87 4.45 295.02 4.47 295.19 4.47L295.19 13.26C295.02 13.26 294.87 13.27 294.73 13.27C294.59 13.27 294.49 13.29 294.42 13.29L294.28 13.29C294.10 13.30 294.00 13.38 294.00 13.54L294.00 13.82L295.19 13.82L295.90 13.82L297.08 13.82L297.08 13.54C297.08 13.38 297.00 13.30 296.81 13.29L296.67 13.29C296.60 13.29 296.51 13.27 296.37 13.27C296.23 13.27 296.07 13.26 295.90 13.26L295.90 4.47C296.07 4.47 296.23 4.45 296.37 4.45C296.51 4.45 296.60 4.44 296.67 4.44ZM311.79 11.97C311.60 11.97 311.51 12.08 311.50 12.31C311.50 12.32 311.50 12.38 311.49 12.43C311.47 12.49 311.47 12.59 311.46 12.71C311.44 12.84 311.43 13.01 311.42 13.20L307.33 13.20L307.33 4.47C307.50 4.47 307.64 4.45 307.78 4.45C307.92 4.45 308.03 4.44 308.10 4.44L308.22 4.44C308.41 4.42 308.50 4.34 308.50 4.19L308.50 3.92L307.33 3.92L306.61 3.92L305.42 3.92L305.42 4.19C305.42 4.34 305.52 4.42 305.70 4.44L305.84 4.44C305.91 4.44 306.01 4.45 306.15 4.45C306.29 4.45 306.45 4.47 306.61 4.47L306.61 13.26C306.45 13.26 306.29 13.27 306.15 13.27C306.01 13.27 305.91 13.29 305.84 13.29L305.70 13.29C305.52 13.30 305.42 13.38 305.42 13.54L305.42 13.82L306.61 13.82L311.89 13.82L312.02 13.82L312.14 13.82L312.14 13.55L312.14 12.99L312.14 11.97L311.86 11.97ZM329.57 6.80C329.35 6.19 329.03 5.68 328.61 5.25C328.19 4.82 327.70 4.48 327.12 4.26C326.55 4.03 325.89 3.92 325.19 3.92L321.76 3.92L320.57 3.92L320.57 4.19C320.57 4.34 320.67 4.42 320.85 4.44L320.99 4.44C321.06 4.44 321.16 4.45 321.30 4.45C321.44 4.45 321.59 4.47 321.76 4.47L321.76 13.26C321.59 13.26 321.44 13.27 321.30 13.27C321.16 13.27 321.06 13.29 320.99 13.29L320.85 13.29C320.67 13.30 320.57 13.38 320.57 13.54L320.57 13.82L321.76 13.82L325.19 13.82C325.89 13.82 326.55 13.71 327.12 13.48C327.70 13.26 328.19 12.92 328.61 12.49C329.03 12.05 329.35 11.54 329.57 10.92C329.80 10.30 329.92 9.63 329.92 8.86C329.92 8.11 329.80 7.42 329.57 6.80ZM328.89 10.72C328.69 11.27 328.44 11.72 328.09 12.10C327.74 12.47 327.32 12.75 326.83 12.95C326.34 13.15 325.79 13.24 325.19 13.24L322.48 13.24L322.48 4.49L325.19 4.49C325.79 4.49 326.34 4.59 326.83 4.79C327.32 4.98 327.74 5.26 328.09 5.64C328.44 6.02 328.69 6.47 328.89 7.01C329.08 7.56 329.18 8.18 329.18 8.86C329.18 9.56 329.08 10.18 328.89 10.72ZM339.40 3.92L338.21 3.92L338.21 4.19C338.21 4.34 338.31 4.42 338.49 4.44L338.63 4.44C338.70 4.44 338.80 4.45 338.94 4.45C339.08 4.45 339.23 4.47 339.40 4.47L339.40 13.26C339.23 13.26 339.08 13.27 338.94 13.27C338.80 13.27 338.70 13.29 338.63 13.29L338.49 13.29C338.31 13.30 338.23 13.38 338.23 13.54L338.23 13.82L339.40 13.82L345.34 13.82L345.34 13.22L345.34 11.76L344.99 11.76C344.79 11.76 344.71 11.89 344.69 12.11C344.69 12.14 344.68 12.19 344.68 12.29C344.68 12.39 344.68 12.53 344.67 12.74C344.65 12.95 344.64 13.09 344.64 13.22L340.12 13.22L340.12 9.09L344.06 9.09L344.06 8.51L340.12 8.51L340.12 4.51L344.64 4.51C344.67 5.12 344.69 5.50 344.69 5.63C344.71 5.85 344.79 5.96 344.99 5.96L345.34 5.96L345.34 4.51L345.34 3.92ZM360.19 6.75L360.12 6.54L358.60 3.99C358.57 3.95 358.55 3.95 358.53 3.93C358.51 3.92 358.47 3.91 358.43 3.91L358.02 3.91L358.02 7.94L358.46 7.94L358.46 4.83L358.43 4.55L360.00 7.18C360.04 7.25 360.08 7.29 360.16 7.29L360.25 7.29C360.33 7.29 360.37 7.25 360.42 7.18L361.96 4.52L361.91 4.83L361.91 7.94L362.35 7.94L362.35 3.91L361.96 3.91C361.91 3.91 361.87 3.92 361.84 3.93C361.83 3.95 361.82 3.95 361.79 3.99L360.29 6.54C360.25 6.59 360.22 6.68 360.19 6.75ZM357.14 3.92L353.85 3.92L353.85 4.33L355.26 4.33L355.26 7.94L355.75 7.94L355.75 4.33L357.14 4.33ZM369.63 13.29C369.63 13.47 369.68 13.61 369.81 13.73C369.94 13.86 370.09 13.93 370.27 13.93C370.36 13.93 370.44 13.90 370.52 13.87C370.61 13.85 370.66 13.79 370.72 13.73C370.78 13.68 370.83 13.62 370.86 13.54C370.89 13.45 370.92 13.38 370.92 13.29C370.92 13.20 370.89 13.12 370.86 13.03C370.83 12.95 370.78 12.88 370.72 12.82C370.66 12.77 370.61 12.71 370.52 12.68C370.44 12.66 370.36 12.63 370.27 12.63C370.17 12.63 370.09 12.66 370.01 12.68C369.92 12.71 369.87 12.77 369.81 12.82C369.75 12.88 369.70 12.95 369.67 13.03C369.64 13.12 369.63 13.20 369.63 13.29Z"></path></g></svg>