<svg data-v-423bf9ae="" xmlns="http://www.w3.org/2000/svg" viewBox="0 0 456.86276056746385 60" class="font"><!----><!----><!----><g data-v-423bf9ae="" id="c0e398da-5ba8-4ff7-812f-71b6370bf541" fill="black" transform="matrix(5.602240876404433,0,0,5.602240876404433,-2.521012112459175,-16.52661109094732)"><path d="M13.99 3.75L15.32 3.75L12.04 13.55L10.57 13.55L7.90 5.73L5.22 13.55L3.72 13.55L0.45 3.75L1.89 3.75L4.54 11.72L7.29 3.75L8.58 3.75L11.28 11.76L13.99 3.75ZM17.04 13.55L17.04 6.13L18.38 6.13L18.38 13.55L17.04 13.55ZM17.71 4.70L17.71 4.70Q17.32 4.70 17.06 4.45L17.06 4.45L17.06 4.45Q16.80 4.20 16.80 3.84L16.80 3.84L16.80 3.84Q16.80 3.47 17.06 3.21L17.06 3.21L17.06 3.21Q17.32 2.95 17.71 2.95L17.71 2.95L17.71 2.95Q18.10 2.95 18.36 3.20L18.36 3.20L18.36 3.20Q18.62 3.44 18.62 3.81L18.62 3.81L18.62 3.81Q18.62 4.19 18.36 4.45L18.36 4.45L18.36 4.45Q18.10 4.70 17.71 4.70L17.71 4.70ZM20.94 13.55L20.94 3.16L22.29 3.16L22.29 13.55L20.94 13.55ZM30.51 3.16L31.85 3.16L31.85 13.55L30.56 13.55L30.56 12.38L30.56 12.38Q30.11 12.99 29.43 13.31L29.43 13.31L29.43 13.31Q28.74 13.64 27.92 13.64L27.92 13.64L27.92 13.64Q26.84 13.64 25.98 13.16L25.98 13.16L25.98 13.16Q25.13 12.68 24.65 11.82L24.65 11.82L24.65 11.82Q24.16 10.96 24.16 9.84L24.16 9.84L24.16 9.84Q24.16 8.72 24.65 7.87L24.65 7.87L24.65 7.87Q25.13 7.01 25.98 6.54L25.98 6.54L25.98 6.54Q26.84 6.06 27.92 6.06L27.92 6.06L27.92 6.06Q28.71 6.06 29.39 6.36L29.39 6.36L29.39 6.36Q30.06 6.66 30.51 7.25L30.51 7.25L30.51 3.16ZM28.03 12.46L28.03 12.46Q28.73 12.46 29.30 12.13L29.30 12.13L29.30 12.13Q29.88 11.80 30.20 11.21L30.20 11.21L30.20 11.21Q30.52 10.61 30.52 9.84L30.52 9.84L30.52 9.84Q30.52 9.07 30.20 8.48L30.20 8.48L30.20 8.48Q29.88 7.88 29.30 7.56L29.30 7.56L29.30 7.56Q28.73 7.24 28.03 7.24L28.03 7.24L28.03 7.24Q27.31 7.24 26.75 7.56L26.75 7.56L26.75 7.56Q26.18 7.88 25.85 8.48L25.85 8.48L25.85 8.48Q25.52 9.07 25.52 9.84L25.52 9.84L25.52 9.84Q25.52 10.61 25.85 11.21L25.85 11.21L25.85 11.21Q26.18 11.80 26.75 12.13L26.75 12.13L26.75 12.13Q27.31 12.46 28.03 12.46L28.03 12.46ZM41.10 9.88L41.10 9.88Q41.10 10.04 41.08 10.29L41.08 10.29L35.06 10.29L35.06 10.29Q35.18 11.27 35.92 11.87L35.92 11.87L35.92 11.87Q36.65 12.46 37.74 12.46L37.74 12.46L37.74 12.46Q39.07 12.46 39.89 11.56L39.89 11.56L40.63 12.43L40.63 12.43Q40.12 13.02 39.38 13.33L39.38 13.33L39.38 13.33Q38.63 13.64 37.70 13.64L37.70 13.64L37.70 13.64Q36.53 13.64 35.62 13.15L35.62 13.15L35.62 13.15Q34.71 12.67 34.21 11.80L34.21 11.80L34.21 11.80Q33.71 10.93 33.71 9.84L33.71 9.84L33.71 9.84Q33.71 8.76 34.20 7.90L34.20 7.90L34.20 7.90Q34.68 7.03 35.53 6.54L35.53 6.54L35.53 6.54Q36.37 6.06 37.44 6.06L37.44 6.06L37.44 6.06Q38.50 6.06 39.33 6.54L39.33 6.54L39.33 6.54Q40.17 7.03 40.64 7.90L40.64 7.90L40.64 7.90Q41.10 8.76 41.10 9.88L41.10 9.88ZM37.44 7.20L37.44 7.20Q36.47 7.20 35.82 7.78L35.82 7.78L35.82 7.78Q35.17 8.37 35.06 9.32L35.06 9.32L39.82 9.32L39.82 9.32Q39.70 8.39 39.05 7.79L39.05 7.79L39.05 7.79Q38.40 7.20 37.44 7.20L37.44 7.20ZM51.31 13.66L51.31 13.66Q49.84 13.66 48.66 13.01L48.66 13.01L48.66 13.01Q47.47 12.36 46.80 11.22L46.80 11.22L46.80 11.22Q46.13 10.08 46.13 8.65L46.13 8.65L46.13 8.65Q46.13 7.22 46.80 6.08L46.80 6.08L46.80 6.08Q47.47 4.94 48.66 4.29L48.66 4.29L48.66 4.29Q49.85 3.64 51.32 3.64L51.32 3.64L51.32 3.64Q52.47 3.64 53.42 4.02L53.42 4.02L53.42 4.02Q54.38 4.41 55.05 5.17L55.05 5.17L54.14 6.05L54.14 6.05Q53.03 4.89 51.38 4.89L51.38 4.89L51.38 4.89Q50.29 4.89 49.41 5.38L49.41 5.38L49.41 5.38Q48.52 5.87 48.03 6.73L48.03 6.73L48.03 6.73Q47.53 7.59 47.53 8.65L47.53 8.65L47.53 8.65Q47.53 9.72 48.03 10.58L48.03 10.58L48.03 10.58Q48.52 11.44 49.41 11.93L49.41 11.93L49.41 11.93Q50.29 12.42 51.38 12.42L51.38 12.42L51.38 12.42Q53.02 12.42 54.14 11.24L54.14 11.24L55.05 12.12L55.05 12.12Q54.38 12.88 53.42 13.27L53.42 13.27L53.42 13.27Q52.46 13.66 51.31 13.66L51.31 13.66ZM60.03 13.64L60.03 13.64Q58.93 13.64 58.04 13.15L58.04 13.15L58.04 13.15Q57.16 12.66 56.66 11.79L56.66 11.79L56.66 11.79Q56.17 10.93 56.17 9.84L56.17 9.84L56.17 9.84Q56.17 8.75 56.66 7.89L56.66 7.89L56.66 7.89Q57.16 7.03 58.04 6.54L58.04 6.54L58.04 6.54Q58.93 6.06 60.03 6.06L60.03 6.06L60.03 6.06Q61.14 6.06 62.01 6.54L62.01 6.54L62.01 6.54Q62.89 7.03 63.38 7.89L63.38 7.89L63.38 7.89Q63.88 8.75 63.88 9.84L63.88 9.84L63.88 9.84Q63.88 10.93 63.38 11.79L63.38 11.79L63.38 11.79Q62.89 12.66 62.01 13.15L62.01 13.15L62.01 13.15Q61.14 13.64 60.03 13.64L60.03 13.64ZM60.03 12.46L60.03 12.46Q60.75 12.46 61.31 12.13L61.31 12.13L61.31 12.13Q61.88 11.80 62.20 11.21L62.20 11.21L62.20 11.21Q62.52 10.61 62.52 9.84L62.52 9.84L62.52 9.84Q62.52 9.07 62.20 8.48L62.20 8.48L62.20 8.48Q61.88 7.88 61.31 7.56L61.31 7.56L61.31 7.56Q60.75 7.24 60.03 7.24L60.03 7.24L60.03 7.24Q59.32 7.24 58.75 7.56L58.75 7.56L58.75 7.56Q58.18 7.88 57.85 8.48L57.85 8.48L57.85 8.48Q57.53 9.07 57.53 9.84L57.53 9.84L57.53 9.84Q57.53 10.61 57.85 11.21L57.85 11.21L57.85 11.21Q58.18 11.80 58.75 12.13L58.75 12.13L58.75 12.13Q59.32 12.46 60.03 12.46L60.03 12.46ZM71.40 3.16L72.74 3.16L72.74 13.55L71.46 13.55L71.46 12.38L71.46 12.38Q71.01 12.99 70.32 13.31L70.32 13.31L70.32 13.31Q69.64 13.64 68.81 13.64L68.81 13.64L68.81 13.64Q67.73 13.64 66.88 13.16L66.88 13.16L66.88 13.16Q66.02 12.68 65.54 11.82L65.54 11.82L65.54 11.82Q65.06 10.96 65.06 9.84L65.06 9.84L65.06 9.84Q65.06 8.72 65.54 7.87L65.54 7.87L65.54 7.87Q66.02 7.01 66.88 6.54L66.88 6.54L66.88 6.54Q67.73 6.06 68.81 6.06L68.81 6.06L68.81 6.06Q69.61 6.06 70.28 6.36L70.28 6.36L70.28 6.36Q70.95 6.66 71.40 7.25L71.40 7.25L71.40 3.16ZM68.92 12.46L68.92 12.46Q69.62 12.46 70.20 12.13L70.20 12.13L70.20 12.13Q70.77 11.80 71.09 11.21L71.09 11.21L71.09 11.21Q71.41 10.61 71.41 9.84L71.41 9.84L71.41 9.84Q71.41 9.07 71.09 8.48L71.09 8.48L71.09 8.48Q70.77 7.88 70.20 7.56L70.20 7.56L70.20 7.56Q69.62 7.24 68.92 7.24L68.92 7.24L68.92 7.24Q68.21 7.24 67.64 7.56L67.64 7.56L67.64 7.56Q67.07 7.88 66.75 8.48L66.75 8.48L66.75 8.48Q66.42 9.07 66.42 9.84L66.42 9.84L66.42 9.84Q66.42 10.61 66.75 11.21L66.75 11.21L66.75 11.21Q67.07 11.80 67.64 12.13L67.64 12.13L67.64 12.13Q68.21 12.46 68.92 12.46L68.92 12.46ZM82.00 9.88L82.00 9.88Q82.00 10.04 81.97 10.29L81.97 10.29L75.95 10.29L75.95 10.29Q76.08 11.27 76.81 11.87L76.81 11.87L76.81 11.87Q77.55 12.46 78.64 12.46L78.64 12.46L78.64 12.46Q79.97 12.46 80.78 11.56L80.78 11.56L81.52 12.43L81.52 12.43Q81.02 13.02 80.27 13.33L80.27 13.33L80.27 13.33Q79.52 13.64 78.60 13.64L78.60 13.64L78.60 13.64Q77.42 13.64 76.51 13.15L76.51 13.15L76.51 13.15Q75.60 12.67 75.10 11.80L75.10 11.80L75.10 11.80Q74.61 10.93 74.61 9.84L74.61 9.84L74.61 9.84Q74.61 8.76 75.09 7.90L75.09 7.90L75.09 7.90Q75.57 7.03 76.42 6.54L76.42 6.54L76.42 6.54Q77.27 6.06 78.33 6.06L78.33 6.06L78.33 6.06Q79.39 6.06 80.23 6.54L80.23 6.54L80.23 6.54Q81.06 7.03 81.53 7.90L81.53 7.90L81.53 7.90Q82.00 8.76 82.00 9.88L82.00 9.88ZM78.33 7.20L78.33 7.20Q77.36 7.20 76.71 7.78L76.71 7.78L76.71 7.78Q76.06 8.37 75.95 9.32L75.95 9.32L80.71 9.32L80.71 9.32Q80.60 8.39 79.95 7.79L79.95 7.79L79.95 7.79Q79.30 7.20 78.33 7.20L78.33 7.20Z"></path></g><!----><!----></svg>